<?xml version="1.0" encoding="UTF-8"?>
<svg version="1.1" xmlns="http://www.w3.org/2000/svg" width="1077" height="1077">
<path d="M0 0 C1.27573805 -0.00205263 2.55147611 -0.00410527 3.86587289 -0.0062201 C7.40197146 -0.011762 10.93804569 -0.0111189 14.4741472 -0.00944251 C18.32327495 -0.00870931 22.17239595 -0.01373928 26.02152079 -0.01801753 C33.65367118 -0.02558664 41.28581458 -0.02779004 48.91796833 -0.02834659 C58.06095256 -0.02926131 67.20393033 -0.03593211 76.34691178 -0.04269341 C98.44477601 -0.05874507 120.54263955 -0.06465586 142.64050857 -0.06944216 C153.09745648 -0.07177906 163.55440383 -0.07538183 174.01135131 -0.07913754 C209.81707363 -0.09197264 245.62279564 -0.1026916 281.4285202 -0.10614014 C283.67575651 -0.10636177 285.92299281 -0.10658355 288.17022912 -0.10680549 C290.42284907 -0.10702613 292.67546901 -0.10724661 294.92808896 -0.10746694 C299.4471215 -0.10790948 303.96615404 -0.1083566 308.48518658 -0.10880661 C309.60564197 -0.108916 310.72609736 -0.10902539 311.88050594 -0.1091381 C348.20243461 -0.11276785 384.52434332 -0.12868503 420.84626434 -0.15199697 C459.26117853 -0.17660708 497.6760813 -0.19031353 536.0910036 -0.19150805 C540.31013787 -0.1916795 544.52927214 -0.19189493 548.74840641 -0.19214249 C549.78725176 -0.19219826 550.82609711 -0.19225402 551.89642262 -0.19231148 C568.59643946 -0.19346093 585.29643577 -0.20447396 601.99644569 -0.21902954 C618.79097096 -0.23341407 635.58546999 -0.23662049 652.37999973 -0.22858956 C662.34946517 -0.22414246 672.31884572 -0.22795705 682.28829996 -0.24382807 C688.95887265 -0.25361277 695.62938619 -0.25236666 702.2999584 -0.24239184 C706.09337031 -0.23702486 709.88661979 -0.23620787 713.68001793 -0.24890056 C766.26332254 -0.41355482 810.41399121 14.97508144 849.18855572 51.13142776 C849.92847759 51.81720901 850.66839947 52.50299026 851.43074322 53.20955276 C880.99975509 81.62105883 901.59638805 125.58808722 902.44040471 166.70225018 C902.4513272 169.00926576 902.45168351 171.31634878 902.44303131 173.62337399 C902.44623779 174.91193435 902.44944427 176.20049472 902.45274791 177.52810237 C902.46129441 181.07687291 902.45757241 184.62553646 902.45169219 188.1743084 C902.4474964 192.04582386 902.45493819 195.9173207 902.4608447 199.78883153 C902.46958456 206.56515785 902.4709267 213.34145395 902.46734142 220.1177845 C902.46202389 230.19485458 902.4681403 240.27189551 902.47642436 250.34896242 C902.49165225 269.39592725 902.49337065 288.44287876 902.49090133 307.4898484 C902.48906749 322.2004527 902.49083018 336.91105266 902.49512577 351.62165642 C902.49572818 353.73636941 902.49632937 355.85108241 902.49692937 357.9657954 C902.49783664 361.15261742 902.49874531 364.33943944 902.49966172 367.52626146 C902.50808954 397.1503302 902.51242815 426.7743973 902.508255 456.39846706 C902.50809863 457.51488891 902.50794225 458.63131075 902.50778114 459.78156356 C902.50697538 465.4398085 902.5061296 471.09805345 902.50526784 476.75629839 C902.50509675 477.88000821 902.50492566 479.00371803 902.50474939 480.16147966 C902.50440273 482.43389333 902.5040542 484.70630699 902.5037038 486.97872066 C902.49834727 522.33309969 902.5062758 557.68745378 902.52473736 593.04182816 C902.54546365 632.77961668 902.55617884 672.51738976 902.55216187 712.25518399 C902.55176654 716.49416276 902.55140499 720.73314152 902.55106449 724.97212029 C902.55092839 726.53768959 902.55092839 726.53768959 902.55078955 728.13488656 C902.54962465 743.8756498 902.55626372 759.61639742 902.56687641 775.35715675 C902.57893755 793.26432189 902.58047685 811.17145265 902.56808624 829.07861831 C902.5614668 839.09275291 902.56306759 849.10680527 902.57667476 859.12093326 C902.5849407 865.81983138 902.58219394 872.51866813 902.57069949 879.2175613 C902.56446426 883.02787995 902.5627869 886.83803857 902.57456283 890.64834776 C902.62966223 909.7599541 902.05329429 928.13464091 896.50105572 946.56892776 C896.2475938 947.42816849 895.99413189 948.28740921 895.73298931 949.17268753 C891.22660654 963.99617278 885.45440284 978.01000444 877.18855572 991.13142776 C876.25076275 992.63189651 876.25076275 992.63189651 875.29402447 994.16267776 C858.43511233 1020.25793892 836.34374702 1041.09414291 809.18855572 1056.13142776 C808.58672466 1056.47125687 807.98489361 1056.81108597 807.36482525 1057.16121292 C783.79302631 1070.32239626 756.35622008 1077.30295217 729.43489647 1077.26285553 C728.15325917 1077.26490816 726.87162187 1077.2669608 725.55114707 1077.26907563 C721.99384839 1077.27462487 718.43657386 1077.27397307 714.87927224 1077.27229804 C711.0089163 1077.27156557 707.1385671 1077.27659313 703.26821405 1077.28087306 C695.59177687 1077.28844638 687.91534664 1077.29064578 680.23890611 1077.29120212 C671.04376963 1077.29211643 661.84863956 1077.298786 652.65350584 1077.30554894 C630.42864365 1077.32160503 608.20378214 1077.32751193 585.97891519 1077.33229769 C575.46273798 1077.33463418 564.94656132 1077.33823691 554.43038453 1077.34199307 C518.42502524 1077.35482867 482.41966626 1077.3655475 446.41430473 1077.36899567 C444.15428345 1077.3692173 441.89426217 1077.36943908 439.63424088 1077.36966102 C437.36878927 1077.36988166 435.10333765 1077.37010214 432.83788604 1077.37032247 C428.29307346 1077.37076502 423.74826088 1077.37121213 419.2034483 1077.37166214 C418.07659989 1077.37177153 416.94975148 1077.37188092 415.78875616 1077.37199363 C379.25914747 1077.37562342 342.72955864 1077.3915405 306.19995756 1077.4148525 C267.56957778 1077.43946002 228.93920934 1077.45316895 190.3088215 1077.45436358 C186.06637911 1077.45453504 181.82393672 1077.45475046 177.58149433 1077.45499802 C176.53690246 1077.45505379 175.49231058 1077.45510955 174.41606441 1077.45516701 C157.62002236 1077.4563167 140.82400071 1077.4673318 124.02796554 1077.48188507 C107.13811793 1077.4962663 90.24829641 1077.49947788 73.35844436 1077.49144509 C63.33100756 1077.4869964 53.30365513 1077.49081897 43.27622945 1077.5066836 C36.56825559 1077.51646278 29.86034057 1077.5152274 23.15236718 1077.50524737 C19.33675586 1077.49987645 15.52130608 1077.49907641 11.70570841 1077.51175609 C-7.55970604 1077.57178306 -25.99326373 1076.95767255 -44.56144428 1071.31892776 C-45.87507954 1070.92882523 -45.87507954 1070.92882523 -47.21525288 1070.53084183 C-74.23203915 1062.32834565 -98.06158336 1048.18170512 -118.81144428 1029.13142776 C-119.32658588 1028.66156448 -119.84172749 1028.1917012 -120.37247944 1027.70759964 C-151.36920008 999.08911856 -171.41826913 957.09809147 -174.81144428 915.13142776 C-174.95204994 910.86061049 -174.9492864 906.5928296 -174.94287205 902.31998348 C-174.94492468 901.04424543 -174.94697731 899.76850738 -174.94909215 898.45411059 C-174.95463404 894.91801203 -174.95399095 891.38193779 -174.95231456 887.84583628 C-174.95158136 883.99670854 -174.95661133 880.14758753 -174.96088958 876.29846269 C-174.96845868 868.6663123 -174.97066209 861.03416891 -174.97121863 853.40201515 C-174.97213336 844.25903093 -174.97880415 835.11605315 -174.98556546 825.9730717 C-175.00161712 803.87520747 -175.00752791 781.77734393 -175.01231421 759.67947491 C-175.01465111 749.22252701 -175.01825387 738.76557965 -175.02200958 728.30863217 C-175.03484469 692.50290986 -175.04556364 656.69718785 -175.04901218 620.89146328 C-175.04923382 618.64422697 -175.0494556 616.39699067 -175.04967754 614.14975436 C-175.04989818 611.89713442 -175.05011866 609.64451447 -175.05033898 607.39189452 C-175.05078153 602.87286198 -175.05122865 598.35382944 -175.05167866 593.83479691 C-175.05178805 592.71434152 -175.05189744 591.59388613 -175.05201015 590.43947754 C-175.0556399 554.11754887 -175.07155708 517.79564017 -175.09486902 481.47371914 C-175.11947913 443.05880496 -175.13318558 404.64390218 -175.1343801 366.22897989 C-175.13455155 362.00984561 -175.13476698 357.79071134 -175.13501453 353.57157707 C-175.1350703 352.53273172 -175.13512607 351.49388638 -175.13518353 350.42356086 C-175.13633298 333.72354402 -175.14734601 317.02354771 -175.16190159 300.32353779 C-175.17628612 283.52901252 -175.17949254 266.73451349 -175.17146161 249.93998375 C-175.1670145 239.97051831 -175.1708291 230.00113776 -175.18670012 220.03168352 C-175.19648482 213.36111083 -175.19523871 206.69059729 -175.18526389 200.02002508 C-175.17989691 196.22661317 -175.17907992 192.43336369 -175.19177261 188.63996556 C-175.36161378 134.40019037 -158.76604584 88.60754159 -120.32365131 49.6226387 C-88.77159596 18.26465555 -44.3830355 -0.06662739 0 0 Z " fill="#FE6550" transform="translate(174.81144428253174,-0.13142776489257813)"/>
<path d="M0 0 C6.52038699 5.78354308 11.45267365 12.12055535 16.125 19.4375 C17.52842596 21.586932 18.93346815 23.7353093 20.33984375 25.8828125 C20.89588036 26.73589745 20.89588036 26.73589745 21.46315002 27.60621643 C25.65262207 34.02701898 29.95687231 40.3691696 34.26242065 46.71246338 C36.71178419 50.32191372 39.15637641 53.93459399 41.6015625 57.546875 C42.11120041 58.29957672 42.62083832 59.05227844 43.1459198 59.82778931 C49.62659999 69.40029492 56.09673441 78.97991523 62.5625 88.5625 C63.17670807 89.47273926 63.79091614 90.38297852 64.42373657 91.32080078 C73.07657757 104.14737513 81.6842952 117.00304882 90.25390625 129.88534546 C96.03899631 138.58025374 101.8645886 147.24399043 107.76489258 155.86132812 C114.57372697 165.81598762 121.31809112 175.81412349 128.0625 185.8125 C128.69076691 186.74382751 129.31903381 187.67515503 129.96633911 188.63470459 C138.81330294 201.75299317 147.61720902 214.89910867 156.37942505 228.0741272 C161.37312656 235.58180387 166.38638167 243.07319857 171.5 250.5 C173.01212675 252.70771544 174.52255102 254.91658418 176.03222656 257.12597656 C177.58285694 259.39074342 179.1375767 261.65253647 180.69433594 263.91308594 C183.25416833 267.63386678 185.7963249 271.36632046 188.33032227 275.10473633 C189.3544093 276.60987073 190.38382226 278.11139609 191.41870117 279.60913086 C192.87403487 281.71713969 194.30991315 283.83721817 195.7421875 285.9609375 C196.40980606 286.91442581 196.40980606 286.91442581 197.09091187 287.88717651 C198.94499696 290.67342722 200.03060454 292.40700484 199.85522461 295.80517578 C198.82139441 298.45836832 197.47515392 300.2793119 195.6875 302.5 C191.60484677 307.92388588 188.17962863 313.60791528 184.8125 319.5 C184.31387451 320.36560547 183.81524902 321.23121094 183.30151367 322.12304688 C176.98327537 333.28362333 172.31706355 344.95465823 168 357 C167.74041504 357.71607422 167.48083008 358.43214844 167.21337891 359.16992188 C163.10020359 370.60419226 160.03787602 382.01810686 158 394 C157.84901855 394.88333008 157.69803711 395.76666016 157.54248047 396.67675781 C153.34392716 422.35722953 153.86280693 448.35207788 158 474 C158.13921875 474.88187988 158.2784375 475.76375977 158.421875 476.67236328 C161.77249273 497.17550674 168.8826002 516.671744 177.8125 535.375 C178.2446582 536.28822021 178.67681641 537.20144043 179.12207031 538.14233398 C182.06193077 544.27502217 185.25154134 550.0515479 189.015625 555.72265625 C190 558 190 558 189.44921875 559.90625 C188.97097656 560.5971875 188.49273438 561.288125 188 562 C187.34128906 562.98871094 186.68257812 563.97742188 186.00390625 564.99609375 C171.55557424 585.56654938 154.12107064 604.99032983 133.68896484 619.77294922 C131.86477625 621.09824148 130.06683036 622.45490013 128.26953125 623.81640625 C113.41631359 635.0009209 97.52892822 643.56322902 81 652 C80.27361328 652.37850098 79.54722656 652.75700195 78.79882812 653.14697266 C74.34569165 655.43966585 69.86494086 657.26389546 65.125 658.875 C64.39087891 659.12693115 63.65675781 659.3788623 62.90039062 659.63842773 C61.36169404 660.16543458 59.82229789 660.69040311 58.28222656 661.21337891 C56.10253974 661.96465736 53.93774769 662.74864772 51.7734375 663.54296875 C39.84000286 667.83313317 27.70230394 670.27843742 15.23632812 672.52270508 C12.97641099 672.90734777 12.97641099 672.90734777 11 674 C-40.32087579 682.39365042 -99.29431815 678.10830473 -145.96484375 653.984375 C-148.12733354 652.93841065 -150.31404141 652.09456105 -152.5625 651.25 C-164.83321951 646.42063566 -176.11905778 639.37367616 -187 632 C-187.69448242 631.53013672 -188.38896484 631.06027344 -189.10449219 630.57617188 C-196.99363352 625.2046926 -204.68251558 619.80918657 -211.62890625 613.23046875 C-213.62348661 611.3541831 -215.65377478 609.56130946 -217.7265625 607.7734375 C-230.07108884 597.00841319 -241.37513943 585.25083684 -251 572 C-251.47066895 571.36835937 -251.94133789 570.73671875 -252.42626953 570.0859375 C-260.45830498 559.30255328 -267.26986602 548.00635974 -273.7578125 536.23779297 C-274.77390572 534.40730742 -275.82023684 532.59363558 -276.875 530.78515625 C-280.56971626 524.3867544 -283.12542448 517.73316725 -285.60546875 510.796875 C-286.47416371 508.36978283 -287.4125165 506.07376294 -288.46484375 503.7109375 C-297.6196277 482.64044993 -302.63510051 456.22437064 -302.96484375 433.28955078 C-302.99206435 431.51680914 -303.03725878 429.74433859 -303.08984375 427.97216797 C-304.70624733 370.95353176 -288.47677501 318.53854127 -256.04138184 271.85061646 C-250.5948619 263.99806778 -245.26556944 256.06596279 -239.92590332 248.14056396 C-238.0568262 245.36657925 -236.1862044 242.59364085 -234.31542969 239.82080078 C-228.10882964 230.61647359 -221.922357 221.39922325 -215.7734375 212.15625 C-215.19325363 211.28433014 -214.61306976 210.41241028 -214.01530457 209.5140686 C-211.28172106 205.40440086 -208.55144471 201.29259113 -205.82641602 197.17724609 C-200.48152195 189.12029432 -195.02825551 181.15978066 -189.42562866 173.27984619 C-184.64643914 166.54121915 -180.05746565 159.68426535 -175.49893188 152.7951355 C-172.91701168 148.89441682 -170.32551002 145.00006998 -167.734375 141.10546875 C-166.91638176 139.87568047 -166.91638176 139.87568047 -166.0818634 138.62104797 C-159.69891542 129.03280505 -153.25764468 119.48399936 -146.8125 109.9375 C-146.20904755 109.04356537 -145.60559509 108.14963074 -144.9838562 107.22860718 C-142.52049559 103.57969163 -140.05687365 99.93095283 -137.59275818 96.282547 C-132.61074217 88.90599641 -127.63350251 81.52623539 -122.65840149 74.14501953 C-119.60674561 69.61765529 -116.55399713 65.09103805 -113.49829102 60.56640625 C-108.31653023 52.89261256 -103.13824028 45.21690854 -97.99887085 37.51463318 C-95.90984015 34.38522929 -93.8150978 31.25967192 -91.71966553 28.134552 C-90.75930347 26.69887475 -89.80170157 25.26134628 -88.847229 23.82174683 C-78.33469628 7.96863148 -67.08835585 -5.93750173 -48 -11.25 C-30.39475207 -14.59315684 -14.30618529 -10.89244798 0 0 Z " fill="#FFFEFE" transform="translate(409,215)"/>
<path d="M0 0 C0.74846191 0.1129541 1.49692383 0.2259082 2.26806641 0.34228516 C22.16033443 3.52079301 41.46865085 11.17162104 59 21 C59.70785645 21.39380859 60.41571289 21.78761719 61.14501953 22.19335938 C104.50771334 46.64707523 137.68313278 89.66286177 151.62890625 137.359375 C152.69536838 141.22752754 153.64473961 145.1161594 154.53710938 149.02783203 C154.94541937 150.76745657 155.41355946 152.49280454 155.890625 154.21484375 C160.72980486 172.26688234 160.35370027 191.95676891 160.31567383 210.51367188 C160.3124601 213.7906876 160.33630428 217.06684128 160.36132812 220.34375 C160.42300876 240.60196569 160.42300876 240.60196569 157 250 C156.58878906 251.18335938 156.17757813 252.36671875 155.75390625 253.5859375 C153.55099433 258.74291819 151.41448668 263.51238893 148 268 C147.45859375 268.75796875 146.9171875 269.5159375 146.359375 270.296875 C137.86605371 281.69035477 124.35651918 291.50421544 110.0234375 293.75390625 C91.48269553 295.26303641 75.34736384 293.08880987 59.98046875 281.77734375 C53.02962801 275.79864857 47.6406306 268.88334285 43 261 C43 260.34 43 259.68 43 259 C40.48858524 261.48903138 38.00836548 263.99102242 35.59765625 266.578125 C23.00692687 279.84786135 7.62938438 288.22399949 -10 293 C-10.77472656 293.22816406 -11.54945313 293.45632813 -12.34765625 293.69140625 C-33.37310586 298.99412105 -57.47037402 293.79710237 -75.859375 282.89794922 C-98.42971163 268.67694919 -113.29552819 246.6778556 -120 221 C-121.04108527 216.01805269 -121.66499864 211.07372631 -122 206 C-122.07589355 204.87682373 -122.07589355 204.87682373 -122.15332031 203.73095703 C-123.71348612 176.33826173 -114.37132915 151.23919062 -96.22265625 130.81640625 C-80.31199963 113.67665816 -58.3737779 102.90254665 -34.93359375 101.65234375 C-10.6746204 100.94938618 11.02744156 108.46629155 29.3125 124.4375 C38.11939562 132.78315068 45.09981799 141.36217184 51 152 C51.81984375 153.47533203 51.81984375 153.47533203 52.65625 154.98046875 C61.89564673 173.19999342 62.67486479 192.4622147 62.5 212.5 C61.86909193 235.93790171 61.86909193 235.93790171 72.0625 256.4375 C79.21433454 263.64814896 86.74466251 267.52587423 97 267.6875 C105.64470551 267.52005056 113.41013125 264.90184879 120.375 259.75 C130.73278309 248.89898915 133.14003543 237.81590789 133.203125 223.1875 C133.20882507 222.14215088 133.21452515 221.09680176 133.22039795 220.01977539 C133.22982361 217.8042094 133.23637223 215.58862955 133.24023438 213.37304688 C133.24980852 210.06613715 133.28079948 206.7598856 133.3125 203.453125 C133.55436096 155.38241613 118.51704631 109.19709736 84.40087891 74.43164062 C83.07781515 73.07952389 81.77832477 71.70445603 80.48046875 70.328125 C64.28220427 53.47564952 44.02773505 41.71395202 22.17578125 33.79589844 C20.77022706 33.28174823 19.37103636 32.74969194 17.98046875 32.19628906 C12.90955039 30.18758035 7.84185867 28.9468015 2.5 27.875 C1.69691406 27.70613281 0.89382813 27.53726562 0.06640625 27.36328125 C-40.1244509 19.09060887 -81.4797909 28.2107604 -115.734375 50.140625 C-125.44847924 56.54966047 -134.13973035 63.71497784 -142.109375 72.19921875 C-144 74 -144 74 -146 74 C-146.2371875 74.55042969 -146.474375 75.10085938 -146.71875 75.66796875 C-148.31487749 78.57311543 -150.31785925 80.81615861 -152.5 83.3125 C-183.46068318 119.81535387 -195.58360705 165.83371917 -193 213 C-191.74122046 226.52731926 -189.52667333 240.16019073 -185 253 C-184.73735352 253.76022461 -184.47470703 254.52044922 -184.20410156 255.30371094 C-175.47178428 280.32348851 -163.03085277 302.58382507 -144.40087891 321.56835938 C-143.07781515 322.92047611 -141.77832477 324.29554397 -140.48046875 325.671875 C-124.8587614 341.92450752 -104.93641538 353.88599622 -84 362 C-83.02546875 362.38542969 -82.0509375 362.77085937 -81.046875 363.16796875 C-43.7139247 376.77676767 -3.20763021 372.35058514 33 358 C33.66 357.67 34.32 357.34 35 357 C40.72713048 356.44931438 43.51756945 357.43443025 48 361 C50.69728205 363.28031091 51.47490235 364.80255247 51.875 368.3125 C52.1977097 372.7372085 51.73233156 375.35689125 49 379 C43.00983713 383.72740811 35.95394695 386.13100986 28.8125 388.5625 C27.67570801 388.95308594 26.53891602 389.34367187 25.36767578 389.74609375 C15.06538212 393.17587563 4.73410272 395.44706899 -6 397 C-7.20527344 397.18949219 -8.41054688 397.37898438 -9.65234375 397.57421875 C-57.81617155 403.29039157 -106.10302311 388.06450544 -143.984375 358.42602539 C-166.77564863 340.18141209 -184.50430613 317.81470523 -198 292 C-198.60457031 290.84628906 -199.20914063 289.69257812 -199.83203125 288.50390625 C-223.76038923 240.05303242 -226.31555459 183.05503563 -210 132 C-207.66275327 125.18966584 -204.95576977 118.56342061 -202 112 C-201.68450195 111.2972998 -201.36900391 110.59459961 -201.04394531 109.87060547 C-191.40559374 88.78109318 -177.62898544 70.29598252 -161.59814453 53.66113281 C-160.24094154 52.25043786 -158.89816566 50.82588533 -157.55859375 49.3984375 C-139.03678538 30.09209581 -113.31130072 15.26215034 -88 7 C-86.8251001 6.61134766 -86.8251001 6.61134766 -85.62646484 6.21484375 C-57.91612822 -2.78463016 -28.76783991 -4.41384949 0 0 Z " fill="#FFFDFD" transform="translate(826,451)"/>
<path d="M0 0 C13.29631183 11.63677216 22.89875861 29.30246424 24.2890625 46.95849609 C25.37725438 67.47544719 20.57013209 87.02896619 7.55078125 103.19921875 C-3.48163164 115.3686275 -20.18578852 125.20347053 -36.87109375 126.1484375 C-53.772306 126.72643607 -69.52826674 122.74189904 -82.4375 111.25 C-83.92918542 109.80447423 -85.41042763 108.34798945 -86.875 106.875 C-87.761875 106.070625 -88.64875 105.26625 -89.5625 104.4375 C-103.41284019 89.08982574 -108.82560174 70.13639846 -108.21484375 49.8046875 C-107.2893698 32.69824012 -99.02006986 14.20595932 -86.34375 2.546875 C-60.02181666 -19.78240553 -27.48944095 -20.87017047 0 0 Z " fill="#FF6550" transform="translate(837.875,594.125)"/>
</svg>
